<?xml version="1.0" encoding="UTF-8" standalone="no"?>
<svg
   xmlns:dc="http://purl.org/dc/elements/1.1/"
   xmlns:cc="http://creativecommons.org/ns#"
   xmlns:rdf="http://www.w3.org/1999/02/22-rdf-syntax-ns#"
   xmlns:svg="http://www.w3.org/2000/svg"
   xmlns="http://www.w3.org/2000/svg"
   xmlns:xlink="http://www.w3.org/1999/xlink"
   xmlns:sodipodi="http://sodipodi.sourceforge.net/DTD/sodipodi-0.dtd"
   xmlns:inkscape="http://www.inkscape.org/namespaces/inkscape"
   id="svg2"
   sodipodi:docname="logo.svg"
   viewBox="0 0 172 106"
   sodipodi:version="0.32"
   version="1.0"
   inkscape:version="1.0.2-2 (e86c870879, 2021-01-15)"
   inkscape:label="Pozadí"
   width="172"
   height="106">
  <defs
     id="defs3">
    <linearGradient
       id="linearGradient19926"
       inkscape:collect="always">
      <stop
         id="stop19928"
         style="stop-color:#ffa4a4"
         offset="0" />
      <stop
         id="stop19930"
         style="stop-color:#ffa4a4;stop-opacity:0"
         offset="1" />
    </linearGradient>
    <linearGradient
       id="linearGradient29067"
       y2="508.07999"
       xlink:href="#linearGradient19926"
       gradientUnits="userSpaceOnUse"
       x2="-423.31"
       y1="566.5"
       x1="-483.07001"
       inkscape:collect="always" />
    <linearGradient
       id="linearGradient29069"
       y2="508.07999"
       xlink:href="#linearGradient19926"
       gradientUnits="userSpaceOnUse"
       x2="-422.5"
       y1="465.01001"
       x1="-527.03003"
       inkscape:collect="always" />
    <linearGradient
       id="linearGradient29071"
       y2="550.71002"
       xlink:href="#linearGradient19926"
       gradientUnits="userSpaceOnUse"
       x2="-551.53003"
       y1="465.45001"
       x1="-445.56"
       inkscape:collect="always" />
    <linearGradient
       id="linearGradient29073"
       y2="539.84003"
       xlink:href="#linearGradient19926"
       gradientUnits="userSpaceOnUse"
       x2="-462.01999"
       y1="447.23001"
       x1="-493.23999"
       inkscape:collect="always" />
    <linearGradient
       id="linearGradient29075"
       y2="551.37"
       xlink:href="#linearGradient19926"
       gradientUnits="userSpaceOnUse"
       x2="-444.04001"
       y1="508.07999"
       x1="-513.08002"
       inkscape:collect="always" />
    <linearGradient
       id="linearGradient29077"
       y2="592.59003"
       xlink:href="#linearGradient19926"
       gradientUnits="userSpaceOnUse"
       x2="-398.95001"
       y1="534.65997"
       x1="-485.10001"
       inkscape:collect="always" />
    <linearGradient
       id="linearGradient29079"
       y2="576.32001"
       xlink:href="#linearGradient19926"
       gradientUnits="userSpaceOnUse"
       x2="-401.85999"
       y1="508.07999"
       x1="-512.96002"
       inkscape:collect="always" />
    <linearGradient
       id="linearGradient1968"
       y2="249.24001"
       gradientUnits="userSpaceOnUse"
       x2="589.79999"
       gradientTransform="translate(-36.161,-19.255)"
       y1="419.19"
       x1="848.65997"
       inkscape:collect="always">
      <stop
         id="stop18126"
         style="stop-color:red"
         offset="0" />
      <stop
         id="stop18128"
         style="stop-color:red;stop-opacity:0"
         offset="1" />
    </linearGradient>
    <linearGradient
       id="linearGradient1978"
       y2="368.66"
       gradientUnits="userSpaceOnUse"
       x2="885.29999"
       gradientTransform="translate(-36.161,-19.255)"
       y1="437.56"
       x1="651.69"
       inkscape:collect="always">
      <stop
         id="stop17229"
         style="stop-color:#49d636"
         offset="0" />
      <stop
         id="stop17231"
         style="stop-color:#49d636;stop-opacity:0"
         offset="1" />
    </linearGradient>
    <linearGradient
       id="linearGradient1981"
       y2="456.35001"
       gradientUnits="userSpaceOnUse"
       x2="174.52"
       gradientTransform="translate(87.257,19.885)"
       y1="564.60999"
       x1="437.01999"
       inkscape:collect="always">
      <stop
         id="stop14546"
         style="stop-color:yellow"
         offset="0" />
      <stop
         id="stop14548"
         style="stop-color:yellow;stop-opacity:0"
         offset="1" />
    </linearGradient>
    <linearGradient
       id="linearGradient1984"
       y2="520.47998"
       gradientUnits="userSpaceOnUse"
       x2="243.75"
       gradientTransform="matrix(1.6492,0,0,1.6,153.77,-236.74)"
       y1="378.85999"
       x1="98.927002"
       inkscape:collect="always">
      <stop
         id="stop3666"
         style="stop-color:#ff6400"
         offset="0" />
      <stop
         id="stop3668"
         style="stop-color:#e5d7ce;stop-opacity:0"
         offset="1" />
    </linearGradient>
    <linearGradient
       id="linearGradient1988"
       y2="230.8"
       gradientUnits="userSpaceOnUse"
       x2="747.27002"
       gradientTransform="translate(-60.658,-167.77)"
       y1="345.75"
       x1="606.96997"
       inkscape:collect="always">
      <stop
         id="stop27144"
         style="stop-color:#57d544"
         offset="0" />
      <stop
         id="stop27146"
         style="stop-color:#57d544;stop-opacity:0"
         offset="1" />
    </linearGradient>
    <linearGradient
       id="linearGradient7367"
       y2="288.31"
       gradientUnits="userSpaceOnUse"
       x2="551.69"
       y1="388.26999"
       x1="969.15002"
       inkscape:collect="always">
      <stop
         id="stop7363"
         style="stop-color:#0d00ff"
         offset="0" />
      <stop
         id="stop7365"
         style="stop-color:black;stop-opacity:0"
         offset="1" />
    </linearGradient>
    <radialGradient
       id="radialGradient8260"
       gradientUnits="userSpaceOnUse"
       cy="411.42001"
       cx="916.47998"
       gradientTransform="matrix(1,0,0,3.2543,0.33402,-928.14)"
       r="101.76"
       inkscape:collect="always">
      <stop
         id="stop4690"
         style="stop-color:#ff4100"
         offset="0" />
      <stop
         id="stop4692"
         style="stop-color:red;stop-opacity:0"
         offset="1" />
    </radialGradient>
    <linearGradient
       id="linearGradient9153"
       y2="411.42001"
       gradientUnits="userSpaceOnUse"
       x2="1018.2"
       y1="411.42001"
       x1="814.71997"
       inkscape:collect="always">
      <stop
         id="stop9149"
         style="stop-color:#5354ff"
         offset="0" />
      <stop
         id="stop9151"
         style="stop-color:black;stop-opacity:0"
         offset="1" />
    </linearGradient>
    <linearGradient
       id="linearGradient10079"
       y2="630.29999"
       gradientUnits="userSpaceOnUse"
       x2="734.65002"
       y1="712.16998"
       x1="535.98999"
       inkscape:collect="always">
      <stop
         id="stop10075"
         style="stop-color:#ff2a2a"
         offset="0" />
      <stop
         id="stop10077"
         style="stop-color:#ff2a2a;stop-opacity:0"
         offset="1" />
    </linearGradient>
    <linearGradient
       id="linearGradient10974"
       y2="724.77002"
       gradientUnits="userSpaceOnUse"
       x2="597.65997"
       y1="614.29999"
       x1="566.03998"
       inkscape:collect="always">
      <stop
         id="stop10970"
         style="stop-color:#dcff00"
         offset="0" />
      <stop
         id="stop10972"
         style="stop-color:black;stop-opacity:0"
         offset="1" />
    </linearGradient>
    <linearGradient
       id="linearGradient13681"
       y2="695.40997"
       gradientUnits="userSpaceOnUse"
       x2="460"
       gradientTransform="translate(65.453,-22.704)"
       y1="695.40997"
       x1="369.89999"
       inkscape:collect="always">
      <stop
         id="stop13674"
         style="stop-color:#00ff0e"
         offset="0" />
      <stop
         id="stop13676"
         style="stop-color:black;stop-opacity:0"
         offset="1" />
    </linearGradient>
  </defs>
  <sodipodi:namedview
     id="base"
     bordercolor="#666666"
     inkscape:pageshadow="2"
     inkscape:guide-bbox="true"
     pagecolor="#ffffff"
     inkscape:window-height="1001"
     width="1052.3622px"
     inkscape:zoom="3.5925919"
     inkscape:window-x="-9"
     showgrid="false"
     borderopacity="1.0"
     inkscape:current-layer="layer1"
     inkscape:cx="-9.1161858"
     inkscape:cy="92.755434"
     showguides="true"
     inkscape:window-y="-9"
     inkscape:window-width="1920"
     height="744.09448px"
     inkscape:pageopacity="0.0"
     inkscape:document-units="px"
     inkscape:document-rotation="0"
     inkscape:window-maximized="1" />
  <g
     id="layer1"
     inkscape:label="Vrstva 1"
     inkscape:groupmode="layer"
     transform="translate(-66.961,-25.788)">
    <g
       id="g13699"
       inkscape:export-ydpi="90"
       inkscape:export-xdpi="90"
       inkscape:export-filename="/media/KINGSTON/článek/ryba.png"
       transform="matrix(0.16287144,0,0,0.13617721,70.008294,22.441845)">
      <path
         id="path10998"
         sodipodi:nodetypes="ccccsccccsc"
         style="fill:url(#linearGradient13681);fill-rule:evenodd;stroke:#000000;stroke-width:5;stroke-linecap:round;stroke-linejoin:round"
         d="m 447.86,606.58 0.28,0.56 c -41.92,89.38 57.4,128.87 64.16,131.44 l 0.12,0.25 c 0.03,-0.07 0.07,-0.13 0.1,-0.19 0.11,0.04 0.43,0.19 0.43,0.19 l 10.74,-43.87 c 41.92,-89.38 -68.42,-85.57 -75.17,-88.13 l -0.13,-0.25 -0.09,0.18 c -0.11,-0.04 -0.44,-0.18 -0.44,-0.18 z" />
      <path
         id="rect2007"
         sodipodi:nodetypes="ccssscsscss"
         style="fill:url(#linearGradient9153);stroke:#000000;stroke-width:5;stroke-linecap:round;stroke-linejoin:round"
         d="m 879.09,147.02 c 32.52,-29.2 98.49,-61.132 136.61,-64.252 -66.26,53.082 -66.44,85.222 -73.27,129.95 -6.82,44.72 -31.78,104.41 -29.22,191.34 2.33,79.36 32.14,153.88 38.55,200.35 6.41,46.47 2.58,85.82 63.04,135.67 -37.21,-2.31 -119.34,-45.23 -133.47,-58.8 -55.17,-52.97 -35.34,-128.24 -25.11,-171.91 17.71,-75.48 -25.09,-44.89 -39,-98.25 13.91,-53.35 55.87,-26.25 39.29,-100.52 -8.57,-38.38 -32.24,-114.38 22.58,-163.58 z" />
      <path
         id="path7373"
         sodipodi:nodetypes="ccssscsscss"
         style="fill:url(#radialGradient8260);stroke:#000000;stroke-width:5;stroke-linecap:round;stroke-linejoin:round"
         d="m 879.42,146.35 c 32.53,-29.2 98.49,-61.126 136.68,-64.246 -66.33,53.076 -66.51,85.226 -73.33,129.95 -6.83,44.72 -31.79,104.42 -29.23,191.34 2.33,79.37 32.14,153.89 38.55,200.36 6.41,46.47 2.59,85.82 63.11,135.66 -37.28,-2.3 -119.41,-45.23 -133.54,-58.79 -55.16,-52.97 -35.34,-128.25 -25.1,-171.91 17.7,-75.49 -25.09,-44.89 -39,-98.25 13.91,-53.36 55.87,-26.25 39.28,-100.53 -8.57,-38.37 -32.23,-114.37 22.58,-163.58 z" />
      <path
         id="path23581"
         sodipodi:nodetypes="csccsssc"
         style="fill:url(#linearGradient1988);stroke:#000000;stroke-width:5;stroke-linecap:round;stroke-linejoin:round"
         d="m 476.54,164.03 c 31.92,-14.78 57.41,-25.23 84.89,-32.8 27.47,-7.58 63.49,-15.88 122.68,-23.67 -60.12,47.2 -57.4,67.51 -37.79,104.92 -11.01,-5.4 -38.83,-20.01 -67.31,-26.9 -34.76,-8.4 -51.82,-7.26 -79.35,-7.46 -27.52,-0.19 -46.72,5.31 -55.44,8.17 -8.02,2.63 -3.92,-4.21 32.32,-22.26 z" />
      <ellipse
         id="path2777"
         style="fill:#ffffff;stroke:#000000;stroke-width:5.6689;stroke-linecap:round;stroke-linejoin:round"
         transform="matrix(0.8875,0,0,0.87654,298.57,-37.837)"
         cx="-16.841644"
         cy="360.5643"
         rx="61.242344"
         ry="62.007874" />
      <path
         id="path1883"
         sodipodi:nodetypes="csscccssc"
         style="fill:url(#linearGradient1984);stroke:#000000;stroke-width:5;stroke-linecap:round;stroke-linejoin:round"
         d="m 588.07,400.18 c 0,57.47 -22.2,109.53 -58.08,147.22 -35.88,37.68 -97.63,60.56 -123.29,60.88 -16.34,0.2 -156.2,-33.57 -192.07,-71.26 -41.13,-35.16 -57.61,-61.81 -62.64,-98.6 -1.97,-23.01 18.24,-108.21 60.05,-144.93 35.87,-37.69 145.48,-101.53 200.19,-101.53 54.7,0 81.88,23.32 117.76,61.01 35.88,37.68 58.08,89.74 58.08,147.21 z" />
      <path
         id="path10986"
         sodipodi:nodetypes="csscccssc"
         style="fill:url(#linearGradient1981);stroke:#000000;stroke-width:5;stroke-linecap:round;stroke-linejoin:round"
         d="m 588.4,398.35 c 0,57.47 -22.2,109.52 -58.08,147.21 -35.88,37.69 -97.63,60.57 -123.29,60.89 -16.34,0.2 -162.19,-35.57 -198.07,-73.26 -41.13,-35.17 -51.61,-59.82 -56.64,-96.6 -1.97,-23.01 18.25,-108.21 60.05,-144.93 35.87,-37.69 145.48,-101.54 200.19,-101.54 54.7,0 81.88,23.32 117.76,61.01 35.88,37.69 58.08,89.75 58.08,147.22 z" />
      <path
         id="path1874"
         sodipodi:nodetypes="ccscsscccsc"
         style="fill:url(#linearGradient1978);stroke:#000000;stroke-width:5.006;stroke-linecap:round;stroke-linejoin:round"
         d="m 502.22,175.85 c -34.27,0 -67,5.68 -97,15.94 96.54,33.01 164.81,113.77 164.81,208.13 0,94.36 -68.27,175.14 -164.81,208.15 30,10.26 62.73,15.95 97,15.95 72.26,0 137.71,-25.11 185.1,-65.67 23.69,-20.28 63.92,-69.75 116.6,-94.26 52.68,-24.5 71.8,-24.04 71.8,-54.96 0,-30.93 -24.19,-32.12 -76.86,-61.23 C 746.18,318.79 711.01,261.78 687.32,241.5 639.93,200.94 574.48,175.85 502.22,175.85 Z" />
      <g
         id="g9179">
        <ellipse
           id="path1886"
           style="fill:#ffffff;stroke:#000000;stroke-width:5.6689;stroke-linecap:round;stroke-linejoin:round"
           transform="matrix(0.8875,0,0,0.87654,320.57,-45.837)"
           cx="-16.841644"
           cy="360.5643"
           rx="61.242344"
           ry="62.007874" />
        <ellipse
           id="path2775"
           style="fill:#000000;stroke:#000000;stroke-width:5;stroke-linecap:round;stroke-linejoin:round"
           transform="matrix(0.79867,0,0,0.85684,394.88,72.049)"
           cx="-94.160103"
           cy="254.15573"
           rx="20.669291"
           ry="18.372704" />
        <path
           id="path6337"
           sodipodi:nodetypes="cc"
           style="fill:none;stroke:#000000;stroke-width:5;stroke-linecap:round;stroke-linejoin:round"
           d="M 375.59,325.14 C 476.04,528.38 155.84,448.04 155.84,448.04" />
        <path
           id="path9184"
           style="fill:none;stroke:#000000;stroke-width:5;stroke-linecap:round;stroke-linejoin:round"
           d="m 361.25,332.95 26.26,-13.7" />
      </g>
      <path
         id="path17237"
         sodipodi:nodetypes="ccscsscccsc"
         style="fill:url(#linearGradient1968);stroke:#000000;stroke-width:5.006;stroke-linecap:round;stroke-linejoin:round"
         d="m 502.22,175.85 c -34.27,0 -67,5.68 -97,15.94 96.54,33.01 164.81,113.77 164.81,208.13 0,94.36 -68.27,175.14 -164.81,208.15 30,10.26 62.73,15.95 97,15.95 72.26,0 137.71,-25.11 185.1,-65.67 23.69,-20.28 63.92,-69.75 116.6,-94.26 52.68,-24.5 71.8,-24.04 71.8,-54.96 0,-30.93 -24.19,-32.12 -76.86,-61.23 C 746.18,318.79 711.01,261.78 687.32,241.5 639.93,200.94 574.48,175.85 502.22,175.85 Z" />
      <g
         id="g22661"
         transform="translate(-36.161,-19.255)">
        <ellipse
           id="path19957"
           style="fill:#e6e6e6;stroke-width:0"
           transform="matrix(0.95261,0,0,0.89748,625.72,-362.9)"
           cx="-467.69266"
           cy="508.08292"
           rx="43.304878"
           ry="41.139633" />
        <ellipse
           id="path19959"
           style="fill:#e6e6e6;stroke-width:0"
           transform="matrix(0.54131,0,0,0.51717,378.15,-94.965)"
           cx="-467.69266"
           cy="508.08292"
           rx="43.304878"
           ry="41.139633" />
        <ellipse
           id="path19961"
           style="fill:#e6e6e6;stroke-width:0"
           transform="matrix(0.66158,0,0,0.67008,474.96,40.43)"
           cx="-467.69266"
           cy="508.08292"
           rx="43.304878"
           ry="41.139633" />
        <ellipse
           id="path19963"
           style="fill:#e6e6e6;stroke-width:0"
           transform="matrix(0.78272,0,0,0.77129,511.05,-99.933)"
           cx="-467.69266"
           cy="508.08292"
           rx="43.304878"
           ry="41.139633" />
        <ellipse
           id="path19965"
           style="fill:#e6e6e6;stroke-width:0"
           transform="matrix(0.49303,0,0,0.46635,310.61,-12.119)"
           cx="-467.69266"
           cy="508.08292"
           rx="43.304878"
           ry="41.139633" />
        <ellipse
           id="path19967"
           style="fill:#e6e6e6;stroke-width:0"
           transform="matrix(0.61373,0,0,0.5934,428.77,-114.95)"
           cx="-467.69266"
           cy="508.08292"
           rx="43.304878"
           ry="41.139633" />
        <ellipse
           id="path19969"
           style="fill:#e6e6e6;stroke-width:0"
           transform="matrix(0.52102,0,0,0.49901,492.01,-142.07)"
           cx="-467.69266"
           cy="508.08292"
           rx="43.304878"
           ry="41.139633" />
        <g
           id="g19946"
           transform="translate(2,-2)">
          <ellipse
             id="path15447"
             style="fill:url(#linearGradient29067);stroke:#000000;stroke-width:2.163;stroke-linecap:round;stroke-linejoin:round"
             transform="matrix(0.95261,0,0,0.89748,615.72,-350.9)"
             cx="-467.69266"
             cy="508.08292"
             rx="43.304878"
             ry="41.139633" />
          <ellipse
             id="path15445"
             style="fill:url(#linearGradient29069);stroke:#000000;stroke-width:3.78;stroke-linecap:round;stroke-linejoin:round"
             transform="matrix(0.54131,0,0,0.51717,368.15,-82.965)"
             cx="-467.69266"
             cy="508.08292"
             rx="43.304878"
             ry="41.139633" />
          <ellipse
             id="path14552"
             style="fill:url(#linearGradient29071);stroke:#000000;stroke-width:3.0038;stroke-linecap:round;stroke-linejoin:round"
             transform="matrix(0.66158,0,0,0.67008,464.96,52.43)"
             cx="-467.69266"
             cy="508.08292"
             rx="43.304878"
             ry="41.139633" />
          <ellipse
             id="path15439"
             style="fill:url(#linearGradient29073);stroke:#000000;stroke-width:2.574;stroke-linecap:round;stroke-linejoin:round"
             transform="matrix(0.78272,0,0,0.77129,501.05,-87.933)"
             cx="-467.69266"
             cy="508.08292"
             rx="43.304878"
             ry="41.139633" />
          <ellipse
             id="path15441"
             style="fill:url(#linearGradient29075);stroke:#000000;stroke-width:4.171;stroke-linecap:round;stroke-linejoin:round"
             transform="matrix(0.49303,0,0,0.46635,300.61,-0.11918)"
             cx="-467.69266"
             cy="508.08292"
             rx="43.304878"
             ry="41.139633" />
          <ellipse
             id="path15443"
             style="fill:url(#linearGradient29077);stroke:#000000;stroke-width:3.3141;stroke-linecap:round;stroke-linejoin:round"
             transform="matrix(0.61373,0,0,0.5934,418.77,-102.95)"
             cx="-467.69266"
             cy="508.08292"
             rx="43.304878"
             ry="41.139633" />
          <ellipse
             id="path18138"
             style="fill:url(#linearGradient29079);stroke:#000000;stroke-width:3.9223;stroke-linecap:round;stroke-linejoin:round"
             transform="matrix(0.52102,0,0,0.49901,482.01,-130.07)"
             cx="-467.69266"
             cy="508.08292"
             rx="43.304878"
             ry="41.139633" />
        </g>
      </g>
      <path
         id="path27156"
         sodipodi:nodetypes="cc"
         style="fill:none;stroke:#000000;stroke-width:3.5;stroke-linecap:round;stroke-linejoin:round"
         d="m 538.94,138.45 c -44.77,18.43 -29.58,36.78 -29.58,36.78" />
      <path
         id="path28946"
         sodipodi:nodetypes="cc"
         style="fill:none;stroke:#000000;stroke-width:3.5;stroke-linecap:round;stroke-linejoin:round"
         d="m 614.43,118.87 c -82.28,25.17 -62.73,59.49 -62.73,59.49" />
      <path
         id="path28948"
         sodipodi:nodetypes="cc"
         style="fill:none;stroke:#000000;stroke-width:3.5;stroke-linecap:round;stroke-linejoin:round"
         d="m 681.43,108.54 c -106.29,29.75 -88.48,80.43 -88.48,80.43" />
      <path
         id="path5587"
         sodipodi:nodetypes="ccscsscccsc"
         style="fill:url(#linearGradient7367);stroke:#000000;stroke-width:5.006;stroke-linecap:round;stroke-linejoin:round"
         d="m 502.22,175.85 c -34.27,0 -67,5.68 -97,15.94 96.54,33.01 164.81,113.77 164.81,208.13 0,94.36 -68.27,175.14 -164.81,208.15 30,10.26 62.73,15.95 97,15.95 72.26,0 137.71,-25.11 185.1,-65.67 23.69,-20.28 63.92,-69.75 116.6,-94.26 52.68,-24.5 71.8,-24.04 71.8,-54.96 0,-30.93 -24.19,-32.12 -76.86,-61.23 C 746.18,318.79 711.01,261.78 687.32,241.5 639.93,200.94 574.48,175.85 502.22,175.85 Z" />
      <g
         id="g10976">
        <path
           id="path9185"
           sodipodi:nodetypes="cccscsc"
           style="fill:url(#linearGradient10079);stroke:#000000;stroke-width:5;stroke-linecap:round;stroke-linejoin:round"
           d="m 634.72,775.1 c -33.59,62.12 -109.39,-9.4 -127.88,-40.65 -21,-33.28 -34.91,-77.19 18,-160.63 7.39,-9.7 -4.55,-27.65 33.6,-24.32 24.74,2.16 3.67,34.49 19.95,51.98 18.02,16.73 37.73,44.57 50.12,69.01 14.3,28.22 23.13,72.17 6.21,104.61 z" />
        <path
           id="path10081"
           sodipodi:nodetypes="cccscsc"
           style="fill:url(#linearGradient10974);stroke:#000000;stroke-width:5;stroke-linecap:round;stroke-linejoin:round"
           d="m 634.72,775.1 c -33.59,62.12 -109.39,-9.4 -127.88,-40.65 -21,-33.28 -34.91,-77.19 18,-160.63 7.39,-9.7 -4.55,-27.65 33.6,-24.32 24.74,2.16 3.67,34.49 19.95,51.98 18.02,16.73 37.73,44.57 50.12,69.01 14.3,28.22 23.13,72.17 6.21,104.61 z" />
      </g>
    </g>
  </g>
  <metadata
     id="metadata86">
    <rdf:RDF>
      <cc:Work>
        <dc:format>image/svg+xml</dc:format>
        <dc:type
           rdf:resource="http://purl.org/dc/dcmitype/StillImage" />
        <cc:license
           rdf:resource="http://creativecommons.org/publicdomain/zero/1.0/" />
        <dc:publisher>
          <cc:Agent
             rdf:about="http://openclipart.org/">
            <dc:title>Openclipart</dc:title>
          </cc:Agent>
        </dc:publisher>
        <dc:title>Happy fish</dc:title>
        <dc:date>2007-01-01T04:52:24</dc:date>
        <dc:description>A cartoon fish.</dc:description>
        <dc:source>https://openclipart.org/detail/2707/happy-fish-by-machovka</dc:source>
        <dc:creator>
          <cc:Agent>
            <dc:title>Machovka</dc:title>
          </cc:Agent>
        </dc:creator>
        <dc:subject>
          <rdf:Bag>
            <rdf:li>animal</rdf:li>
            <rdf:li>cartoon</rdf:li>
            <rdf:li>fish</rdf:li>
            <rdf:li>happy</rdf:li>
            <rdf:li>multicolor</rdf:li>
            <rdf:li>swim</rdf:li>
          </rdf:Bag>
        </dc:subject>
      </cc:Work>
      <cc:License
         rdf:about="http://creativecommons.org/publicdomain/zero/1.0/">
        <cc:permits
           rdf:resource="http://creativecommons.org/ns#Reproduction" />
        <cc:permits
           rdf:resource="http://creativecommons.org/ns#Distribution" />
        <cc:permits
           rdf:resource="http://creativecommons.org/ns#DerivativeWorks" />
      </cc:License>
    </rdf:RDF>
  </metadata>
</svg>
